<?xml version="1.0" encoding="UTF-8" standalone="no"?>
<svg
   xmlns:dc="http://purl.org/dc/elements/1.1/"
   xmlns:cc="http://creativecommons.org/ns#"
   xmlns:rdf="http://www.w3.org/1999/02/22-rdf-syntax-ns#"
   xmlns:svg="http://www.w3.org/2000/svg"
   xmlns="http://www.w3.org/2000/svg"
   xmlns:sodipodi="http://sodipodi.sourceforge.net/DTD/sodipodi-0.dtd"
   xmlns:inkscape="http://www.inkscape.org/namespaces/inkscape"
   version="1.1"
   width="2399.9998"
   height="2399.9998"
   id="svg52"
   fill="red"
   viewBox="0 0 2399.9998 2399.9998"
   sodipodi:docname="FB.cdr">
  <metadata
     id="metadata58">
    <rdf:RDF>
      <cc:Work
         rdf:about="">
        <dc:format>image/svg+xml</dc:format>
        <dc:type
           rdf:resource="http://purl.org/dc/dcmitype/StillImage" />
      </cc:Work>
    </rdf:RDF>
  </metadata>
  <defs
     id="defs56" />
  <sodipodi:namedview
     pagecolor="#ffffff"
     bordercolor="#666666"
     borderopacity="1"
     objecttolerance="10"
     gridtolerance="10"
     guidetolerance="10"
     inkscape:pageopacity="0"
     inkscape:pageshadow="2"
     inkscape:window-width="640"
     inkscape:window-height="480"
     id="namedview54" />
  <path
     d="M 1.904,1.0882 H 2401.9038 V 2401.088 H 1.904 V 1200.7162 Z"
     style="fill:#003f7d;fill-rule:evenodd" 
     id="path2" />
  <text
     x="970.15887"
     y="1307.6042"
     id="text6"><tspan
       font-family="'Maron Rose'"
       font-size="187.5px"
       fill="#1a1a1a"
       id="tspan4">BIOTECH</tspan></text>
  <text
     x="970.15863"
     y="1179.9125"
     id="text10"><tspan
       font-family="'Maron Rose'"
       font-size="274px"
       fill="#ff6600"
       id="tspan8">FLOURISH</tspan></text>
  <path
     d="m 645.6824,1461.1929 7.1466,-0.8817 c 10.3022,-15.6796 192.0066,-98.7761 223.7544,-115.4012 30.605,-16.0334 40.1299,-29.0272 40.1183,-72.1562 l 0.0928,-45.6871 c 0.8702,-49.7999 0.1915,-99.5882 0.3481,-149.0806 0.1972,-64.1917 -10.4125,-65.0502 -60.1485,-89.605 L 651.141,886.4494 646.1233,886.0839 418.2272,999.5824 c -46.4355,25.0421 -41.2437,70.1201 -39.9038,116.9268 l 1.8389,153.3442 c -0.0638,60.0383 17.9883,63.7044 64.2961,86.6292 30.431,15.0647 189.8429,89.7616 201.224,104.7103 z"
     style="fill:#ff3f59;fill-rule:evenodd"
     id="path12" />
  <path
     d="m 645.6824,1461.1929 7.1466,-0.8817 c 10.3022,-15.6796 192.0066,-98.7761 223.7544,-115.4012 30.605,-16.0334 40.1299,-29.0272 40.1183,-72.1562 l 0.0928,-45.6871 c 0.8702,-49.7999 0.1915,-99.5882 0.3481,-149.0806 0.1972,-64.1917 -10.4125,-65.0502 -60.1485,-89.605 L 651.141,886.4494 646.1233,886.0839 418.2272,999.5824 c -46.4355,25.0421 -41.2437,70.1201 -39.9038,116.9268 l 1.8389,153.3442 c -0.0638,60.0383 17.9883,63.7044 64.2961,86.6292 30.431,15.0647 189.8429,89.7616 201.224,104.7103 z"
     style="fill:#ff6600;fill-rule:evenodd"
     id="path14" />
  <path
     d="m 654.2397,1365.0117 v -245.1705 h -13.772 v 245.1705 q 0,6.886 6.886,6.886 v 0 q 6.886,0 6.886,-6.886 z"
     style="fill:#1a1a1a;fill-rule:evenodd"
     id="path16" />
  <path
     d="m 472.4239,1266.3008 73.6821,-108.6291 q 25.66,-37.8304 -12.1704,-37.8304 h 113.4913 l -73.6821,108.629 q -25.66,37.8305 12.1704,37.8305 z"
     style="fill:#1a1a1a;fill-rule:evenodd"
     id="path18" />
  <path
     d="M 822.2835,1266.3008 697.2814,1082.0109 q 25.66,37.8304 63.4904,37.8304 H 647.2805 l 125.0022,184.2899 q -25.6601,-37.8304 -63.4905,-37.8304 z"
     style="fill:#1a1a1a;fill-rule:evenodd"
     id="path20" />
  <path
     d="m 522.491,1332.7699 52.5933,-77.5381 q 18.3158,-27.0029 -8.6871,-27.0029 h 81.0087 l -52.5933,77.5381 q -18.3159,27.0029 8.687,27.0029 z"
     style="fill:#1a1a1a;fill-rule:evenodd"
     id="path22" />
  <path
     d="M 772.2164,1332.7699 682.9915,1201.226 q 18.3158,27.0029 45.3187,27.0029 h -81.0087 l 89.225,131.5439 q -18.3159,-27.0029 -45.3188,-27.0029 z"
     style="fill:#1a1a1a;fill-rule:evenodd"
     id="path24" />
  <path
     d="m 702.1437,1407.1394 c -31.7134,-0.5035 -65.3603,-27.1662 -57.0892,-61.808 37.5648,3.3888 56.1135,31.7761 57.0892,61.808 z"
     style="fill:#1a1a1a;fill-rule:evenodd"
     id="path26" />
  <path
     d="m 592.5637,1407.1394 c 31.7134,-0.5035 65.3603,-27.1662 57.0892,-61.808 -37.5648,3.3888 -56.1135,31.7761 -57.0892,61.808 z"
     style="fill:#1a1a1a;fill-rule:evenodd"
     id="path28" />
  <path
     d="m 723.3031,1099.9245 20.4386,1.1454 c 1.1371,0.065 1.6051,0.2922 2.6776,0.3786 2.9982,0.2414 7.6139,1.4106 10.4493,2.5393 0.4063,0.1618 0.0606,0.02 0.5177,0.2464 0.4279,0.2117 0.6836,0.2874 1.0509,0.4771 0.5522,0.2852 1.399,0.7839 1.9249,1.1313 2.1214,1.4015 4.0014,3.3581 5.3649,5.5226 2.1052,3.3421 3.5822,8.9854 4.0081,12.8007 0.0982,0.8791 0.2103,2.0128 0.3653,2.8818 0.3218,1.8035 0.1762,3.7558 0.4626,5.6497 l 0.3059,5.8065 c -0.0102,2.1725 0.1866,3.6864 0.1865,5.9257 -10e-5,2.1011 0,4.2022 0,6.3033 h 0.191 c 0,-2.2398 0.1937,-3.7902 0.1911,-5.9212 -0.001,-1.0204 -0.008,-2.0429 -0.007,-3.0627 0.002,-1.2074 0.2072,-1.5878 0.202,-2.8542 -0.004,-1.0213 -0.0124,-2.0461 -0.011,-3.0671 l 0.423,-5.6894 c 0.6062,-5.332 1.0561,-11.6981 3.5021,-16.5538 l 1.6586,-2.9256 c 2.9579,-4.463 8.2086,-7.1962 13.3461,-8.238 0.898,-0.1821 1.7317,-0.353 2.5043,-0.5518 l 14.0435,-1.4283 12.0903,-0.5163 c -1.2827,0 -1.7434,-0.1849 -2.8576,-0.1986 l -11.9892,-0.2354 c -0.6388,-0.086 -2.0367,-0.265 -2.7367,-0.3195 -2.1253,-0.1652 -3.9693,-0.1801 -5.7705,-0.5328 l -5.1189,-0.9934 c -5.0205,-1.0851 -9.5294,-3.1312 -12.8157,-7.2403 -3.3611,-4.2026 -4.2842,-9.4433 -5.2371,-14.6278 -0.607,-3.3023 -1.0527,-11.0143 -1.0331,-14.4386 0.007,-1.2857 -0.1873,-1.7337 -0.2011,-2.855 -0.0126,-1.0132 0.006,-2.0479 0.008,-3.0639 0.003,-2.1752 -0.1911,-3.8122 -0.1911,-6.1122 h -0.191 c 0,2.0375 0,4.0749 0,6.1123 0,2.2376 -0.2033,3.8008 -0.1885,5.9238 l -0.2741,5.8382 c -0.2783,1.8384 -0.1063,4.0464 -0.4393,5.6729 -0.8409,4.106 -0.5881,5.4358 -1.9615,10.2632 -0.3488,1.2262 -1.6387,4.2732 -2.3013,5.339 l -2.3046,3.0437 c -0.0279,0.028 -0.0695,0.066 -0.0975,0.094 l -0.766,0.762 c -2.803,2.6284 -7.058,4.5018 -10.7877,5.2571 -0.961,0.1946 -1.4488,0.4469 -2.4699,0.5862 -3.6776,0.5017 -4.0475,0.7522 -8.3977,0.9618 -0.6466,0.031 -2.0127,0.1588 -2.7843,0.2718 -1.91,0.2798 -9.5763,0.291 -11.9302,0.2943 -1.2209,0 -1.7132,0.1976 -3.0497,0.1976 z"
     style="fill:#1a1a1a;fill-rule:evenodd"
     id="path30" />
  <path
     d="m 420.1069,1296.3668 14.7232,0.7505 c 0.8191,0.043 1.1563,0.1914 1.9289,0.248 2.1597,0.1582 5.4847,0.9242 7.5272,1.6638 0.2928,0.106 0.0437,0.013 0.373,0.1614 0.3082,0.1387 0.4924,0.1883 0.757,0.3126 0.3978,0.1868 1.0078,0.5136 1.3867,0.7412 1.5281,0.9183 2.8825,2.2002 3.8646,3.6184 1.5166,2.1897 2.5805,5.8871 2.8874,8.3869 0.0707,0.576 0.1515,1.3188 0.2631,1.8881 0.2318,1.1817 0.1269,2.4608 0.3332,3.7017 l 0.2204,3.8043 c -0.007,1.4235 0.1344,2.4154 0.1344,3.8826 -10e-5,1.3766 0,2.7532 0,4.1298 h 0.1375 c 0,-1.4675 0.1396,-2.4833 0.1377,-3.8795 -9e-4,-0.6686 -0.006,-1.3385 -0.005,-2.0067 0.001,-0.7911 0.1493,-1.0403 0.1455,-1.87 -0.003,-0.6692 -0.009,-1.3406 -0.008,-2.0096 l 0.3048,-3.7276 c 0.4366,-3.4935 0.7607,-7.6645 2.5228,-10.8459 l 1.1948,-1.9169 c 2.1307,-2.9241 5.9131,-4.7149 9.614,-5.3975 0.6469,-0.1193 1.2474,-0.2313 1.804,-0.3615 l 10.1165,-0.9358 8.7094,-0.3383 c -0.924,0 -1.2559,-0.1211 -2.0585,-0.1301 l -8.6366,-0.1543 c -0.4602,-0.056 -1.4672,-0.1736 -1.9714,-0.2093 -1.531,-0.1082 -2.8594,-0.118 -4.1569,-0.3491 l -3.6875,-0.6508 c -3.6166,-0.711 -6.8646,-2.0516 -9.232,-4.7438 -2.4212,-2.7535 -3.0862,-6.1872 -3.7726,-9.584 -0.4373,-2.1637 -0.7583,-7.2166 -0.7442,-9.4602 0.005,-0.8423 -0.135,-1.1358 -0.1449,-1.8705 -0.009,-0.6638 0.005,-1.3418 0.006,-2.0074 0.002,-1.4252 -0.1377,-2.4978 -0.1377,-4.0047 h -0.1375 c 0,1.3349 -10e-5,2.6698 0,4.0047 0,1.4661 -0.1465,2.4903 -0.1359,3.8812 l -0.1974,3.8252 c -0.2005,1.2045 -0.0766,2.6512 -0.3165,3.7169 -0.6057,2.6902 -0.4236,3.5614 -1.4129,6.7243 -0.2513,0.8034 -1.1805,2.7998 -1.6578,3.4981 l -1.6602,1.9942 c -0.0201,0.018 -0.05,0.043 -0.0702,0.061 l -0.5518,0.4993 c -2.0192,1.7221 -5.0844,2.9495 -7.7711,3.4444 -0.6923,0.1275 -1.0436,0.2928 -1.7792,0.3841 -2.6492,0.3287 -2.9157,0.4928 -6.0494,0.6301 -0.4658,0.02 -1.4499,0.1041 -2.0057,0.1781 -1.3759,0.1833 -6.8985,0.1907 -8.5942,0.1929 -0.8795,0 -1.2341,0.1294 -2.1968,0.1294 z"
     style="fill:#1a1a1a;fill-rule:evenodd"
     id="path32" />
  <path
     d="m 601.1237,1000.2615 v 8.1347 h 90.1599 v -8.1347 z"
     style="fill:#1a1a1a;fill-rule:evenodd"
     id="path34" />
  <path
     d="m 601.1237,1025.5012 v 8.1347 h 90.1599 v -8.1347 z"
     style="fill:#1a1a1a;fill-rule:evenodd"
     id="path36" />
  <path
     d="m 601.1237,1050.7409 v 8.1346 h 90.1599 v -8.1346 z"
     style="fill:#1a1a1a;fill-rule:evenodd"
     id="path38" />
  <path
     d="m 536.3976,828.251 48.2054,2.7016 c 2.6819,0.1543 3.7857,0.6891 6.3154,0.8928 7.0712,0.5694 17.9576,3.327 24.645,5.9892 0.9584,0.3816 0.143,0.0475 1.221,0.5811 1.0093,0.4994 1.6124,0.678 2.4787,1.1253 1.3024,0.6726 3.2996,1.8487 4.54,2.6682 5.0034,3.3056 9.4376,7.9202 12.6534,13.0254 4.9653,7.8825 8.4487,21.1924 9.4534,30.1909 0.2315,2.0737 0.496,4.7475 0.8616,6.797 0.7588,4.2537 0.4154,8.8583 1.0909,13.3252 l 0.7214,13.6948 c -0.024,5.124 0.4402,8.6947 0.4401,13.9762 -3e-4,4.9555 0,9.9111 0,14.8666 h 0.4504 c 0,-5.2828 0.4569,-8.9394 0.4508,-13.9654 -0.003,-2.4067 -0.0191,-4.8184 -0.0157,-7.2237 0.004,-2.8477 0.4887,-3.7449 0.4764,-6.7317 -0.01,-2.4089 -0.0292,-4.8258 -0.0259,-7.234 l 0.9977,-13.4185 c 1.4297,-12.576 2.4909,-27.5907 8.2599,-39.043 l 3.9119,-6.9003 c 6.9763,-10.5262 19.3603,-16.9726 31.4773,-19.4298 2.1181,-0.4294 4.0843,-0.8326 5.9066,-1.3014 l 33.1224,-3.3686 28.5154,-1.2179 c -3.0253,0 -4.1118,-0.436 -6.7396,-0.4684 l -28.2773,-0.5552 c -1.5066,-0.202 -4.8036,-0.6251 -6.4545,-0.7534 -5.0127,-0.3897 -9.3619,-0.4249 -13.6101,-1.2567 l -12.0731,-2.343 c -11.8412,-2.5592 -22.4756,-7.3851 -30.2265,-17.0765 -7.9273,-9.9122 -10.1045,-22.2727 -12.3521,-34.5004 -1.4315,-7.7887 -2.4828,-25.978 -2.4366,-34.0544 0.0174,-3.0324 -0.4418,-4.0889 -0.4744,-6.7336 -0.0295,-2.3895 0.0152,-4.83 0.0182,-7.2262 0.006,-5.1304 -0.4508,-8.9914 -0.4508,-14.416 h -0.4504 c 0,4.8055 -2e-4,9.6108 0,14.4162 0,5.2774 -0.4795,8.9643 -0.4448,13.9714 l -0.6464,13.7697 c -0.6563,4.336 -0.2507,9.5437 -1.0362,13.38 -1.9831,9.6842 -1.387,12.8204 -4.6262,24.2062 -0.8227,2.8921 -3.865,10.0786 -5.4278,12.5923 l -5.4355,7.1787 c -0.0658,0.0651 -0.1639,0.1556 -0.2299,0.2206 l -1.8066,1.7975 c -6.611,6.1991 -16.6467,10.6175 -25.4434,12.3989 -2.2667,0.459 -3.417,1.0542 -5.8253,1.3828 -8.6738,1.1833 -9.5463,1.7739 -19.8064,2.2682 -1.5251,0.0736 -4.7471,0.3747 -6.5669,0.6412 -4.5049,0.6599 -22.5862,0.6864 -28.1382,0.6942 -2.8795,0.004 -4.0405,0.4659 -7.1927,0.4659 z"
     style="fill:#ff6600;fill-opacity:0;fill-rule:evenodd"
     id="path40" />
  <path
     d="m 489.5007,1536.6889 68.3075,3.482 c 3.8002,0.1988 5.3644,0.8881 8.9489,1.1506 10.02,0.7339 25.4461,4.2879 34.9222,7.719 1.358,0.4917 0.2026,0.061 1.7303,0.7488 1.43,0.6437 2.2847,0.8738 3.5123,1.4503 1.8454,0.8669 4.6755,2.3827 6.4331,3.4388 7.0898,4.2603 13.3731,10.2077 17.93,16.7873 7.0358,10.1591 11.9719,27.313 13.3955,38.9104 0.3281,2.6725 0.7028,6.1185 1.2209,8.76 1.0752,5.4822 0.5887,11.4166 1.5459,17.1736 l 1.0222,17.65 c -0.034,6.6039 0.6238,11.2058 0.6236,18.0127 -4e-4,6.3867 0,12.7735 0,19.1602 h 0.6382 c 0,-6.8085 0.6475,-11.5212 0.6388,-17.9987 -0.004,-3.1018 -0.027,-6.2099 -0.0223,-9.31 0.006,-3.6701 0.6926,-4.8265 0.6752,-8.6759 -0.014,-3.1046 -0.0415,-6.2195 -0.0368,-9.3232 l 1.4138,-17.294 c 2.0258,-16.208 3.5296,-35.5591 11.7044,-50.319 l 5.5432,-8.8931 c 9.8854,-13.5663 27.4337,-21.8745 44.6036,-25.0413 3.0013,-0.5535 5.7875,-1.0731 8.3697,-1.6773 l 46.9347,-4.3415 40.4065,-1.5697 c -4.2868,0 -5.8264,-0.5619 -9.5501,-0.6037 l -40.069,-0.7154 c -2.1349,-0.2604 -6.8068,-0.8056 -9.1462,-0.971 -7.1031,-0.5024 -13.2658,-0.5476 -19.2857,-1.6197 l -17.1076,-3.0196 c -16.7791,-3.2985 -31.8481,-9.5181 -42.8312,-22.0085 -11.2331,-12.7748 -14.3182,-28.7052 -17.503,-44.4645 -2.0285,-10.0381 -3.5182,-33.4806 -3.4527,-43.8895 0.0247,-3.9083 -0.6261,-5.2699 -0.6722,-8.6784 -0.0418,-3.0797 0.0215,-6.225 0.0257,-9.3133 0.009,-6.612 -0.6388,-11.5882 -0.6388,-18.5794 h -0.6382 c 0,6.1933 -2e-4,12.3864 0,18.5797 0,6.8016 -0.6795,11.5533 -0.6303,18.0065 l -0.916,17.7466 c -0.9299,5.5883 -0.3552,12.3 -1.4682,17.2442 -2.8101,12.4811 -1.9654,16.5231 -6.5553,31.1972 -1.1659,3.7274 -5.4768,12.9895 -7.6913,16.2292 l -7.7022,9.2519 c -0.0932,0.084 -0.2322,0.2006 -0.3257,0.2844 l -2.56,2.3165 c -9.3678,7.9895 -23.5885,13.684 -36.0534,15.9799 -3.212,0.5915 -4.842,1.3587 -8.2547,1.7821 -12.2908,1.5251 -13.5271,2.2863 -28.0657,2.9234 -2.1612,0.095 -6.7267,0.4829 -9.3055,0.8264 -6.3833,0.8504 -32.0047,0.8846 -39.8719,0.8946 -4.0804,0.01 -5.7255,0.6004 -10.1922,0.6004 z"
     style="fill:#ff6600;fill-opacity:0;fill-rule:evenodd"
     id="path42" />
  <text
     x="970.15863"
     y="1354.2953"
     id="text50"><tspan
       font-family="'Maron Rose'"
       font-size="57px"
       fill="#1a1a1a"
       id="tspan44">“</tspan><tspan
       font-family="'Maron Rose'"
       font-size="57px"
       fill="#1a1a1a"
       id="tspan46">Make Life Towards Bio Product</tspan><tspan
       font-family="'Maron Rose'"
       font-size="57px"
       fill="#1a1a1a"
       id="tspan48">”</tspan></text>
</svg>
